<svg width="1440" height="865" viewBox="0 0 1440 865" fill="none" xmlns="http://www.w3.org/2000/svg">
<path d="M230.5 276.5C164.1 272.5 -5.49988 421.833 -81.9999 497L-39.4999 -52.5H322.5C341.333 -27.1667 378.3 36.3 375.5 87.5C372 151.5 313.5 281.5 230.5 276.5Z" fill="#EF5051"/>
<path d="M1170.5 299.5C1122.5 185.1 1329.5 118.5 1439 99.5H1453.5V721.116C1454.77 724.179 1454.52 726.709 1453.5 728.5V721.116C1449.81 712.208 1433.33 698.8 1386 686C1306.5 664.5 1290.5 637 1294.5 492C1298.5 347 1230.5 442.5 1170.5 299.5Z" fill="#FFD162"/>
<path d="M282.5 406.5C236.9 297.3 5.50011 300.333 -104.5 315.5C-124.333 469.167 -145.3 789.6 -70.4999 842C23.0001 907.5 171.5 793.5 308 711C444.5 628.5 339.5 543 282.5 406.5Z" fill="#7EC1EB"/>
<path d="M1194.76 725.939C1207.15 805.118 1366.77 845.782 1445.04 856.217C1485.36 760.271 1555.43 556.444 1513.1 508.701C1460.19 449.022 1338.29 495.553 1230.11 523.879C1121.93 552.204 1179.28 626.965 1194.76 725.939Z" fill="#CA86CC"/>
<path d="M474.367 508.771C471.771 432.864 277.435 425.088 271.13 430.272C213.645 428.81 197.698 569.126 188.426 606.895C179.155 644.663 323.372 658.573 400.935 639.479C474.924 621.266 476.963 584.678 474.367 508.771Z" fill="#FFCABE"/>
<path d="M-10 175.34C-2.352 148.979 19.1899 101.531 44.1733 122.619C75.4027 148.979 51.184 194.737 77.952 175.34C104.72 155.943 136.587 90.7884 158.893 122.619C181.2 154.45 181.837 175.34 229 175.34" stroke="#FFCABE" stroke-width="20" stroke-linecap="round"/>
<path d="M1240.32 676.812C1255.15 653.711 1289.28 614.338 1307.24 641.654C1329.7 675.8 1293.48 712.792 1324.65 701.798C1355.83 690.805 1404.89 637.388 1417.24 674.245C1429.58 711.102 1424.26 731.311 1469.48 744.709" stroke="#456CB0" stroke-width="20" stroke-linecap="round"/>
<path d="M230.5 -20.5C166.833 26.1667 58.6 135 135 197C230.5 274.5 467.5 278.5 534.5 432C601.5 585.5 810 605 912.5 582C1015 559 1191.5 539.5 1227 608.5C1262.5 677.5 1421 651 1446 568" stroke="#132834" stroke-width="4"/>
<path d="M1215 -34.5C1161.67 51.1667 1134.6 227.9 1453 249.5" stroke="#F87867" stroke-width="100"/>
<path d="M1218.33 -28C1182.01 65.8143 1178.69 250.226 1456 237.36" stroke="#FFDECE" stroke-width="30"/>
<path d="M1177.1 -14C1157.28 35.6693 1139.72 150.453 1228.08 212.234C1316.45 274.016 1413.51 279.56 1451 274.61" stroke="#FFDECE" stroke-width="10"/>
<path d="M651.5 -42.5C589.333 57 506.4 257.6 672 264C879 272 914 221.5 987 347C1060 472.5 1213 512 1286 447C1359 382 1418 254.5 1445 264" stroke="#132834" stroke-width="4"/>
</svg>
