<svg width="42" height="41" viewBox="0 0 42 41" fill="none" xmlns="http://www.w3.org/2000/svg">
<path d="M34.5626 40.6084H7.43736C3.32472 40.6084 0 37.3114 0 33.2331V7.37532C0 3.29699 3.32472 0 7.43736 0H34.5626C38.6753 0 42 3.29699 42 7.37532V33.2331C42 37.3114 38.6753 40.6084 34.5626 40.6084Z" fill="#132834"/>
<path d="M33.8984 38.8723H8.10371C4.60427 38.8723 1.75163 36.0435 1.75163 32.5732V8.03493C1.75163 4.56468 4.60427 1.73584 8.10371 1.73584H33.8816C37.3995 1.73584 40.2337 4.56468 40.2337 8.03493V32.5566C40.2505 36.0435 37.3979 38.8723 33.8984 38.8723Z" fill="#132834"/>
<path d="M16.6076 19.002L21.5082 28.3382C21.5955 28.4765 21.5435 28.6164 21.4023 28.6164H18.3565C18.1633 28.6164 18.0759 28.5648 17.9886 28.3915C16.868 26.1008 15.7307 23.81 14.558 21.346H14.5227C13.4727 23.6718 12.3169 26.1191 11.198 28.4098C11.1107 28.5481 11.0233 28.6014 10.8822 28.6014H7.99763C7.82291 28.6014 7.80443 28.4631 7.89347 28.3582L12.6882 19.2985L8.05139 10.1356C7.94555 9.99735 8.05139 9.89239 8.15555 9.89239H11.1661C11.3408 9.89239 11.4114 9.92738 11.4803 10.084C12.5823 12.3747 13.7029 14.7354 14.7529 17.0428H14.7882C15.8029 14.7521 16.9235 12.3747 18.0087 10.1006C18.0961 9.96236 18.1482 9.87573 18.3246 9.87573H21.1419C21.2814 9.87573 21.3351 9.98069 21.2478 10.119L16.6076 19.002ZM22.3667 21.8308C22.3667 17.7875 25.0799 14.6288 29.384 14.6288C29.7519 14.6288 29.9435 14.6288 30.2946 14.6638V10.0657C30.2946 9.9607 30.3819 9.89239 30.4693 9.89239H33.2346C33.374 9.89239 33.4093 9.94404 33.4093 10.0307V25.9625C33.4093 26.4306 33.4093 27.0204 33.4967 27.6635C33.4967 27.7684 33.4614 27.8017 33.3572 27.855C31.8872 28.5498 30.3467 28.8613 28.8767 28.8613C25.0782 28.8763 22.365 26.5522 22.3667 21.8308ZM30.2929 17.3893C30.0476 17.2844 29.6982 17.2161 29.2782 17.2161C27.0723 17.2161 25.5335 18.8987 25.5335 21.6942C25.5335 24.8879 27.1093 26.1724 29.0867 26.1724C29.5067 26.1724 29.9619 26.1208 30.2946 25.9808V17.3893H30.2929Z" fill="white"/>
</svg>
