<svg width="24" height="22" viewBox="0 0 24 22" fill="none" xmlns="http://www.w3.org/2000/svg">
<path d="M12 21.6667C11.1333 20.9806 10.1944 20.448 9.18334 20.0688C8.17222 19.6897 7.125 19.5001 6.04167 19.5001C5.28334 19.5001 4.53854 19.5994 3.80729 19.798C3.07604 19.9966 2.37639 20.2765 1.70834 20.6376C1.32917 20.8362 0.963544 20.8272 0.611461 20.6105C0.259378 20.3938 0.0833359 20.0779 0.0833359 19.6626V6.60841C0.0833359 6.4098 0.132989 6.22022 0.232294 6.03966C0.3316 5.85911 0.480558 5.72369 0.679169 5.63341C1.50972 5.20008 2.37639 4.87508 3.27917 4.65841C4.18195 4.44175 5.10278 4.33341 6.04167 4.33341C7.08889 4.33341 8.11354 4.46883 9.11563 4.73966C10.1177 5.0105 11.0792 5.41675 12 5.95841V19.6626C12.9208 19.0667 13.8868 18.6199 14.8979 18.322C15.909 18.024 16.9292 17.8751 17.9583 17.8751C18.6083 17.8751 19.317 17.9383 20.0844 18.0647C20.8517 18.1911 21.5875 18.4529 22.2917 18.8501V5.173C22.4702 5.24071 22.6457 5.3118 22.8183 5.38628C22.9908 5.46076 23.1583 5.54314 23.3208 5.63341C23.5014 5.74175 23.6458 5.88328 23.7542 6.058C23.8625 6.23274 23.9167 6.41621 23.9167 6.60841V19.6626C23.9167 20.0779 23.7406 20.3938 23.3885 20.6105C23.0365 20.8272 22.6708 20.8362 22.2917 20.6376C21.6236 20.2765 20.924 19.9966 20.1927 19.798C19.4615 19.5994 18.7167 19.5001 17.9583 19.5001C16.875 19.5001 15.8278 19.6897 14.8167 20.0688C13.8056 20.448 12.8667 20.9806 12 21.6667ZM13.625 17.1438V7.58341L20.6667 0.541748V11.023L13.625 17.1438ZM10.375 18.8501V6.9605C9.76111 6.61744 9.04792 6.36466 8.23542 6.20216C7.42292 6.03966 6.69167 5.95841 6.04167 5.95841C5.19306 5.95841 4.40313 6.04869 3.67188 6.22925C2.94063 6.4098 2.28611 6.64031 1.70834 6.92077V18.8501C2.34028 18.5431 3.02188 18.3039 3.75313 18.1324C4.48438 17.9608 5.25174 17.8751 6.05521 17.8751C6.85868 17.8751 7.62153 17.9608 8.34375 18.1324C9.06598 18.3039 9.74306 18.5431 10.375 18.8501Z" fill="white"/>
</svg>
