<svg width="34" height="39" viewBox="0 0 34 39" fill="none" xmlns="http://www.w3.org/2000/svg">
<path d="M33.8626 9.86823L33.9571 9.80517C33.7681 9.45837 33.4846 9.14309 33.2011 8.98545L17.9866 0.220695C17.7346 0.0630558 17.3881 0 17.0101 0C16.6321 0 16.2856 0.0945837 16.0336 0.220695L0.913504 9.01698C0.378001 9.33225 0 10.1205 0 10.7195V28.2805C0 28.6273 0.0630001 29.0057 0.283501 29.3525L0.220501 29.384C0.378001 29.6362 0.598503 29.8569 0.819003 29.983L16.0021 38.7793C16.2541 38.9369 16.6006 39 16.9786 39C17.3566 39 17.7031 38.9054 17.9551 38.7793L33.0751 29.983C33.6106 29.6677 33.9886 28.8795 33.9886 28.2805V10.688C34.0201 10.4357 33.9886 10.152 33.8626 9.86823ZM17.0101 27.2086C19.8766 27.2086 22.3966 25.6322 23.7196 23.2991L27.7831 25.6952C25.6411 29.4155 21.6091 31.9378 17.0101 31.9378C10.143 31.9378 4.56752 26.3573 4.56752 19.4842C4.56752 12.6112 10.143 7.03072 17.0101 7.03072C21.6406 7.03072 25.6726 9.58448 27.8146 13.3363L23.7196 15.7009C22.3966 13.3363 19.8766 11.7599 17.0101 11.7599C12.7576 11.7599 9.29254 15.228 9.29254 19.4842C9.29254 23.7405 12.7576 27.2086 17.0101 27.2086Z" fill="#132834"/>
</svg>
