<svg width="21" height="21" viewBox="0 0 21 21" fill="none" xmlns="http://www.w3.org/2000/svg">
<path d="M9.35417 20.8646C8.03472 20.7257 6.81076 20.3612 5.68229 19.7709C4.55382 19.1806 3.57726 18.4167 2.7526 17.4792C1.92795 16.5417 1.28125 15.474 0.8125 14.2761C0.34375 13.0782 0.109375 11.8108 0.109375 10.474C0.109375 7.78303 0.990452 5.44796 2.7526 3.46879C4.51476 1.48962 6.72396 0.361152 9.38021 0.083374V1.64587C7.15799 1.97574 5.31771 2.974 3.85938 4.64067C2.40104 6.30733 1.67188 8.25178 1.67188 10.474C1.67188 12.6962 2.3967 14.6407 3.84635 16.3073C5.29601 17.974 7.13195 18.9723 9.35417 19.3021V20.8646ZM10.5 15.7084L5.29167 10.5L6.41146 9.38025L9.71875 12.6875V5.29171H11.2813V12.6875L14.5885 9.38025L15.7083 10.5L10.5 15.7084ZM11.6458 20.8646V19.3021C12.4444 19.198 13.2127 18.994 13.9505 18.6901C14.6884 18.3863 15.3698 17.9827 15.9948 17.4792L17.1406 18.625C16.342 19.2327 15.4783 19.7362 14.5495 20.1355C13.6207 20.5348 12.6528 20.7778 11.6458 20.8646ZM16.0208 3.49483C15.3611 3.02608 14.6667 2.63112 13.9375 2.30994C13.2083 1.98876 12.4444 1.7674 11.6458 1.64587V0.083374C12.6528 0.204902 13.6163 0.460978 14.5365 0.851603C15.4566 1.24223 16.3247 1.74136 17.1406 2.349L16.0208 3.49483ZM18.625 17.0105L17.5052 15.9167C18.0087 15.2743 18.408 14.5842 18.7031 13.8464C18.9983 13.1085 19.1979 12.3403 19.3021 11.5417H20.8906C20.7691 12.5487 20.5174 13.5165 20.1354 14.4454C19.7535 15.3742 19.25 16.2292 18.625 17.0105ZM19.3021 9.40629C19.1979 8.60768 18.9983 7.83511 18.7031 7.08858C18.408 6.34206 18.0087 5.65629 17.5052 5.03129L18.7292 3.96358C19.3368 4.76219 19.8229 5.62157 20.1875 6.54171C20.5521 7.46185 20.7865 8.41671 20.8906 9.40629H19.3021Z" fill="#132834"/>
</svg>
