<svg width="21" height="21" viewBox="0 0 21 21" fill="none" xmlns="http://www.w3.org/2000/svg">
<path d="M9.35417 20.8646C8.03472 20.7257 6.81076 20.3611 5.68229 19.7708C4.55382 19.1805 3.57726 18.4166 2.7526 17.4791C1.92795 16.5416 1.28125 15.4739 0.8125 14.276C0.34375 13.0781 0.109375 11.8107 0.109375 10.4739C0.109375 7.78297 0.990452 5.4479 2.7526 3.46873C4.51476 1.48956 6.72396 0.361091 9.38021 0.083313V1.64581C7.15799 1.97567 5.31771 2.97394 3.85938 4.6406C2.40104 6.30727 1.67188 8.25172 1.67188 10.4739C1.67188 12.6962 2.3967 14.6406 3.84635 16.3073C5.29601 17.9739 7.13195 18.9722 9.35417 19.3021V20.8646ZM10.5 15.7083L5.29167 10.5L6.41146 9.38019L9.71875 12.6875V5.29165H11.2813V12.6875L14.5885 9.38019L15.7083 10.5L10.5 15.7083ZM11.6458 20.8646V19.3021C12.4444 19.1979 13.2127 18.9939 13.9505 18.6901C14.6884 18.3863 15.3698 17.9826 15.9948 17.4791L17.1406 18.625C16.342 19.2326 15.4783 19.7361 14.5495 20.1354C13.6207 20.5347 12.6528 20.7778 11.6458 20.8646ZM16.0208 3.49477C15.3611 3.02602 14.6667 2.63106 13.9375 2.30988C13.2083 1.9887 12.4444 1.76734 11.6458 1.64581V0.083313C12.6528 0.204841 13.6163 0.460917 14.5365 0.851542C15.4566 1.24217 16.3247 1.7413 17.1406 2.34894L16.0208 3.49477ZM18.625 17.0104L17.5052 15.9166C18.0087 15.2743 18.408 14.5842 18.7031 13.8463C18.9983 13.1085 19.1979 12.3403 19.3021 11.5416H20.8906C20.7691 12.5486 20.5174 13.5165 20.1354 14.4453C19.7535 15.3741 19.25 16.2291 18.625 17.0104ZM19.3021 9.40623C19.1979 8.60762 18.9983 7.83505 18.7031 7.08852C18.408 6.34199 18.0087 5.65623 17.5052 5.03123L18.7292 3.96352C19.3368 4.76213 19.8229 5.62151 20.1875 6.54165C20.5521 7.46179 20.7865 8.41665 20.8906 9.40623H19.3021Z" fill="white"/>
</svg>
