<svg width="25" height="41" viewBox="0 0 25 41" fill="none" xmlns="http://www.w3.org/2000/svg">
<path d="M12.5006 20.5014C12.5006 11.393 25 11.393 25 20.5014C25 29.6099 12.5006 29.6099 12.5006 20.5014ZM0.00117226 34.1686C0.00117226 30.3915 2.79588 27.3357 6.25029 27.3357H12.4994V34.1686C12.4994 43.2771 0 43.2771 0 34.1686H0.00117226ZM12.5006 0.00128126V13.6685H18.7497C27.0799 13.6685 27.0799 0.00128126 18.7497 0.00128126H12.5006ZM0.00117226 6.83424C0.00117226 10.6114 2.79588 13.6672 6.25029 13.6672H12.4994V0H6.25029C2.79588 0 0.00117226 3.0558 0.00117226 6.83296V6.83424ZM0.00117226 20.5014C0.00117226 24.2786 2.79588 27.3357 6.25029 27.3357H12.4994V13.6672H6.25029C2.79588 13.6672 0.00117226 16.7243 0.00117226 20.5014Z" fill="#132834"/>
</svg>
