<svg width="42" height="44" viewBox="0 0 42 44" fill="none" xmlns="http://www.w3.org/2000/svg">
<path d="M20.9999 0C16.0134 0.000217178 11.1897 1.86401 7.39193 5.25788C3.59411 8.65176 1.07 13.3542 0.271235 18.5239C-0.527532 23.6936 0.451171 28.9932 3.03222 33.4743C5.61328 37.9554 9.62825 41.3257 14.3587 42.9822C15.4087 43.1752 15.8025 42.5135 15.8025 41.9345C15.8025 41.4107 15.7762 39.6737 15.7762 37.8265C10.5 38.8466 9.13499 36.4756 8.715 35.235C8.24896 34.0283 7.51018 32.959 6.56251 32.1195C5.82752 31.7059 4.77752 30.6858 6.53624 30.6583C7.20779 30.7348 7.85187 30.9803 8.41392 31.3738C8.97597 31.7673 9.43942 32.2974 9.76499 32.919C10.0522 33.4609 10.4384 33.938 10.9015 34.3229C11.3645 34.7077 11.8954 34.9929 12.4635 35.1619C13.0317 35.3309 13.626 35.3806 14.2125 35.3079C14.799 35.2353 15.366 35.0418 15.8812 34.7386C15.9721 33.6173 16.4479 32.569 17.2199 31.7887C12.5475 31.2373 7.665 29.3348 7.665 20.8984C7.63549 18.7063 8.40564 16.5855 9.81749 14.9708C9.17548 13.0656 9.2506 10.9748 10.0275 9.12586C10.0275 9.12586 11.7862 8.54685 15.8024 11.3866C19.2386 10.394 22.8662 10.394 26.3024 11.3866C30.3186 8.51931 32.0773 9.12586 32.0773 9.12586C32.8543 10.9748 32.9294 13.0656 32.2873 14.9708C33.7034 16.5827 34.4742 18.7054 34.4398 20.8984C34.4398 29.3624 29.5311 31.2373 24.8586 31.7887C25.3598 32.3222 25.7458 32.9627 25.9904 33.6668C26.2349 34.3709 26.3324 35.122 26.2761 35.8691C26.2761 38.8192 26.2499 41.1901 26.2499 41.9346C26.2499 42.5136 26.6436 43.2028 27.6936 42.9823C32.4158 41.3123 36.4192 37.9341 38.9893 33.4507C41.5593 28.9672 42.5287 23.6704 41.7244 18.5057C40.9201 13.3411 38.3945 8.64468 34.5983 5.25493C30.8021 1.86519 25.9826 0.00272375 20.9999 0Z" fill="#132834"/>
</svg>
