<svg width="40" height="41" viewBox="0 0 40 41" fill="none" xmlns="http://www.w3.org/2000/svg">
<path d="M33.2559 0.571605C33.0109 -0.190535 32.0292 -0.190535 31.7825 0.571605L27.3642 15.6081H37.6742L33.2559 0.571605ZM2.32575 15.6062L0.0724118 23.1737C-0.127589 23.8615 0.0957451 24.6236 0.630747 25.066L20.0008 40.8963L2.32742 15.6081L2.32575 15.6062ZM12.6375 15.6081L8.21911 0.571605C7.97411 -0.190535 6.99244 -0.190535 6.74577 0.571605L2.32742 15.6081H12.6375Z" fill="#132834"/>
<path d="M12.6368 15.6079L20.0001 40.8961L27.3635 15.6079H12.6368Z" fill="#132834"/>
<path d="M39.9285 23.1755L39.9268 23.1774L37.6735 15.6099L20.0001 40.8962L39.3702 25.066C39.9035 24.6254 40.1268 23.8633 39.9285 23.1755Z" fill="#132834"/>
</svg>
