<svg width="40" height="41" viewBox="0 0 40 41" fill="none" xmlns="http://www.w3.org/2000/svg">
<path d="M0 0H39.2917V41H0V0ZM36.0747 31.2241C35.7873 29.3483 34.616 27.7801 31.1571 26.313C29.955 25.7262 28.6117 25.3124 28.2151 24.3643C28.0678 23.8031 28.042 23.4968 28.1377 23.1624C28.387 22.0542 29.6345 21.7274 30.6193 22.0349C31.259 22.2412 31.8471 22.7486 32.2179 23.5699C33.9124 22.4155 33.9124 22.4155 35.0899 21.648C34.6491 20.9343 34.4318 20.6204 34.131 20.3206C33.1008 19.1124 31.7268 18.4987 29.4945 18.5525L28.3367 18.7063C27.2304 18.9868 26.1756 19.6006 25.5359 20.4218C23.6745 22.6243 24.2123 26.4681 26.4691 28.0632C28.7013 29.8044 31.9687 30.185 32.3911 31.8275C32.7815 33.8301 30.9655 34.4708 29.1679 34.2363C27.8443 33.9288 27.1088 33.2356 26.2959 31.9544L23.3024 33.7494C23.6413 34.5707 24.0379 34.9243 24.6261 35.6444C27.4722 38.6412 34.5963 38.4875 35.8745 33.9288C35.9187 33.775 36.265 32.7206 35.9961 31.1126L36.0747 31.2241ZM21.3661 18.8446H17.6886C17.6886 22.1541 17.669 25.4443 17.669 28.7615C17.669 30.864 17.7709 32.7987 17.4455 33.3932C16.9016 34.5681 15.5141 34.4208 14.8805 34.2145C14.2346 33.8814 13.9019 33.4201 13.5249 32.7526C13.4156 32.5719 13.3395 32.4195 13.3137 32.4195L10.3276 34.3413C10.8261 35.4163 11.5554 36.3439 12.496 36.9307C13.897 37.8046 15.7768 38.0852 17.7463 37.6252C19.0258 37.2383 20.1321 36.4439 20.7067 35.2164C21.5441 33.6277 21.3648 31.6802 21.3587 29.4969C21.3784 25.9863 21.3587 22.477 21.3587 18.9394L21.3661 18.8446Z" fill="#132834"/>
</svg>
