<svg width="38" height="49" viewBox="0 0 38 49" fill="none" xmlns="http://www.w3.org/2000/svg">
<path d="M12.2415 37.8913C12.2415 37.8913 10.2709 38.9831 13.6405 39.349C17.7232 39.7962 19.8112 39.7334 24.3061 38.9188C24.3061 38.9188 25.4862 39.6293 27.1396 40.2433C17.0535 44.3517 4.31587 39.9968 12.2398 37.8913H12.2415ZM11.0067 32.5318C11.0067 32.5318 8.79303 34.0861 12.1642 34.4122C16.5351 34.8425 19.9706 34.8839 25.9321 33.7921C25.9321 33.7921 26.7548 34.5822 28.0556 35.0186C15.8637 38.4073 2.27773 35.282 11.0067 32.5318ZM21.3954 23.433C23.8763 26.1526 20.7402 28.6011 20.7402 28.6011C20.7402 28.6011 27.0462 25.4972 24.1532 21.6231C21.4469 18.0016 19.3669 16.2085 30.6009 10.0099C30.6009 10.0099 12.9675 14.1979 21.3938 23.4346L21.3954 23.433ZM34.7287 41.8634C34.7287 41.8634 36.1889 43.0026 33.1268 43.8893C27.307 45.5629 8.9025 46.0652 3.78782 43.952C1.95252 43.1941 5.39773 42.1344 6.47959 41.9185C7.61135 41.6796 8.25693 41.7286 8.25693 41.7286C6.21073 40.3566 -4.95721 44.416 2.582 45.5798C23.1502 48.7541 40.0687 44.1526 34.7287 41.8634ZM13.1881 26.9733C13.1881 26.9733 3.82324 29.0865 9.86684 29.8521C12.425 30.1783 17.5155 30.1078 22.2615 29.725C26.1334 29.4126 30.0261 28.7511 30.0261 28.7511C30.0261 28.7511 28.6593 29.3085 27.6692 29.9562C18.1595 32.3328 -0.209584 31.2241 5.08058 28.7925C9.54969 26.7421 13.1881 26.9733 13.1881 26.9733ZM29.9827 35.9052C39.6421 31.12 35.173 26.5338 32.0627 27.1571C31.2979 27.2995 30.955 27.4373 30.955 27.4373C30.955 27.4373 31.2319 27.0131 31.7777 26.8309C37.9485 24.7652 42.6945 32.9146 29.7895 36.1456C29.7895 36.138 29.9424 36.017 29.9827 35.9052ZM24.1548 0C24.1548 0 29.5061 5.08841 19.0739 12.9193C10.7153 19.2037 17.1694 22.7853 19.0739 26.8768C14.1943 22.6888 10.6138 19.0061 13.0126 15.5761C16.5415 10.5275 26.3104 8.08664 24.1548 0ZM14.1347 48.849C23.4094 49.4064 37.6539 48.5305 38 44.3594C38 44.3594 37.3448 45.9381 30.3256 47.1968C22.4112 48.6163 12.6423 48.4478 6.84826 47.5398C6.84826 47.5398 8.03959 48.4723 14.1331 48.849H14.1347Z" fill="#132834"/>
</svg>
