<svg width="42" height="46" viewBox="0 0 42 46" fill="none" xmlns="http://www.w3.org/2000/svg">
<path d="M0 0H41.2437V46H0V0ZM3.61269 40.25H19.0791V37.375H3.61269V40.25ZM5.6723 13.2207H6.18913C7.39035 13.0352 8.25003 11.8809 8.25003 10.3457V5.75H6.35668V10.5412C6.35668 11.3045 6.19042 11.5 5.6723 11.5C5.15417 11.5 4.81262 11.3045 4.63734 10.9236L3.43611 12.0779C3.95295 13.0367 4.81262 13.4176 5.6723 13.2221V13.2207ZM14.2652 13.2207V11.5H10.6525V10.3457H13.747V8.625H10.6525V7.47069H14.2652V5.75H8.76815V13.4162H14.2652V13.2207ZM16.5013 13.2207H18.387V7.47069H20.4478V5.75H14.608V7.47069H16.6689V13.2207H16.5013ZM9.62653 20.5059C9.62653 19.5471 9.1097 18.7852 8.25003 18.7852C8.93441 18.5898 9.27596 17.8264 9.27596 17.0545C9.27596 16.6736 9.1097 16.0957 8.93441 15.7148C8.41758 15.1383 7.73319 14.9514 7.0488 14.9514H3.6114V22.4221H7.0488C8.59158 22.4221 9.62653 21.6588 9.62653 20.5059ZM5.33075 16.6736H6.53197C7.0488 16.6736 7.39164 16.8691 7.39164 17.25C7.39164 17.8264 7.05009 18.0133 6.53197 18.0133H5.33075V16.6736ZM5.33075 20.7014V19.3617H6.69823C7.39035 19.3617 7.73319 19.5471 7.55791 19.9295C7.55791 20.3205 7.21636 20.7014 6.69823 20.7014H5.33075ZM18.0441 14.9514L15.4664 21.6602L14.4314 19.9295C15.2911 19.5486 15.8079 18.5898 15.8079 17.6309C15.8079 17.0545 15.6417 16.2912 15.2911 15.9102C14.6067 15.1383 13.7483 14.9514 13.0639 14.9514H9.79409V22.4221H11.6874V20.1236H12.5471L13.9236 22.4221H17.0104L17.5273 21.0824H20.105L20.6218 22.4221H22.6827L19.9387 14.7559H18.0454L18.0441 14.9514ZM12.8887 18.5898H11.6874V16.8691H12.8887C13.4055 16.8691 13.9236 17.0545 13.9236 17.8279C13.9236 18.2088 13.573 18.5898 12.8887 18.5898ZM19.5869 19.5486H18.2194L18.9038 17.4455L19.5869 19.5486ZM22.858 22.4236H24.7436V14.9529H22.858V22.4236ZM29.7315 18.9707L26.9785 14.9514H25.2605V22.4221H27.1538V18.4029L30.0731 22.6176H31.6159V14.9514H29.7303L29.7315 18.9707ZM35.0533 17.8264C34.1936 17.6309 33.852 17.4455 33.852 17.0545C33.852 16.8691 34.0273 16.6736 34.5442 16.6736C35.2286 16.6736 35.9117 17.0545 36.4298 17.4455L37.4647 15.9102C36.6051 15.1383 35.7467 14.9514 34.7117 14.9514C33.1689 14.9514 32.134 16.0957 32.134 17.4455C32.134 18.9707 33.1689 19.3617 34.7117 19.7441C35.5714 19.9295 35.9129 20.125 35.9129 20.5074C35.9129 20.8897 35.5714 21.0838 35.0533 21.0838C34.1936 21.0838 33.5105 20.7029 32.8261 20.125L31.7911 21.4648C32.6508 22.2367 33.852 22.6191 34.8857 22.6191C36.6038 22.6191 37.6297 21.6602 37.6297 20.125C37.6297 18.7852 36.6038 18.2088 35.052 17.8264H35.0533Z" fill="#132834"/>
</svg>
