<svg width="30" height="16" viewBox="0 0 30 16" fill="none" xmlns="http://www.w3.org/2000/svg">
<path d="M13.9375 15.0834H7.91666C5.95694 15.0834 4.28645 14.3928 2.9052 13.0115C1.52395 11.6303 0.833328 9.9598 0.833328 8.00008C0.833328 6.04036 1.52395 4.36987 2.9052 2.98862C4.28645 1.60737 5.95694 0.916748 7.91666 0.916748H13.9375V3.04175H7.91666C6.53935 3.04175 5.36863 3.523 4.4045 4.48551C3.44038 5.44799 2.95833 6.61674 2.95833 7.99176C2.95833 9.36675 3.44038 10.5383 4.4045 11.5063C5.36863 12.4744 6.53935 12.9584 7.91666 12.9584H13.9375V15.0834ZM9.51041 9.06258V6.93758H20.4896V9.06258H9.51041ZM16.0625 15.0834V12.9584H22.0833C23.4606 12.9584 24.6314 12.4772 25.5955 11.5147C26.5596 10.5522 27.0417 9.38342 27.0417 8.0084C27.0417 6.63341 26.5596 5.46189 25.5955 4.49383C24.6314 3.52578 23.4606 3.04175 22.0833 3.04175H16.0625V0.916748H22.0833C24.0431 0.916748 25.7135 1.60737 27.0948 2.98862C28.476 4.36987 29.1667 6.04036 29.1667 8.00008C29.1667 9.9598 28.476 11.6303 27.0948 13.0115C25.7135 14.3928 24.0431 15.0834 22.0833 15.0834H16.0625Z" fill="white"/>
</svg>
