<svg width="16" height="39" viewBox="0 0 16 39" fill="none" xmlns="http://www.w3.org/2000/svg">
<path d="M15.3711 15.478C13.532 6.43293 9.18678 3.46707 8.71989 2.33049C8.20708 1.52439 7.6549 0 7.6549 0C7.64944 0.0317073 7.64944 0.0512195 7.64397 0.0829268V0.102439C7.64397 0.128049 7.6385 0.140244 7.6385 0.165854V0.191463H7.63304V0.229268V0.273171H7.62757C7.62757 0.285366 7.62757 0.304878 7.6221 0.310976V0.34878C7.6221 0.360976 7.6221 0.37439 7.61663 0.380488V0.412195C7.61663 0.431707 7.61663 0.45 7.61117 0.463415V0.469512C7.61117 0.495122 7.6057 0.526829 7.60023 0.552439V0.564634C7.59477 0.570732 7.59477 0.576829 7.59477 0.584146V0.609756H7.5893V0.647561H7.58383V0.673171H7.5729V0.710976H7.56743V0.742683H7.56196V0.768293H7.5565V0.793902H7.55103V0.819512H7.54556V0.845122H7.5401V0.864634H7.53463V0.890244H7.52916V0.896341V0.915854H7.52369C7.51823 0.915854 7.51823 0.921951 7.51823 0.921951V0.934146L7.51276 0.946341C7.51276 0.958537 7.50729 0.971951 7.50182 0.984146C7.49636 0.990244 7.49636 0.990244 7.49636 0.996341V1.00854H7.49089V1.02073H7.47996V1.05244H7.46902V1.07195H7.46356V1.07805H7.45809V1.09024H7.45262V1.10976H7.44715V1.12195H7.43622V1.14146H7.43075V1.15366H7.42529V1.16585H7.41982V1.18537H7.41435V1.19756H7.40888V1.20366H7.40342V1.21585H7.39248V1.23537H7.38702V1.24146H7.38155V1.25366H7.37608V1.27317H7.37062V1.27927H7.36515V1.29146H7.35968V1.29756H7.35421V1.31707H7.34328V1.32317H7.33781V1.33537H7.33235V1.34146H7.32688V1.35366H7.32141V1.35976V1.36585C7.31594 1.36585 7.31594 1.37195 7.31594 1.37195V1.37805H7.31048C7.30501 1.39024 7.29954 1.39756 7.29298 1.40976C7.29298 1.40976 7.28205 1.42195 7.28205 1.42927C7.27658 1.42927 7.27658 1.43537 7.27658 1.43537V1.44146H7.27111V1.44756H7.26565V1.45366V1.45976H7.25471V1.46585H7.24925V1.47195H7.24378V1.47805V1.49024H7.23831V1.49634H7.23285V1.50244H7.22738V1.51463H7.22191V1.50244H7.21098V1.50854H7.20551V1.52073H7.20004V1.53293H7.19458V1.53902H7.18911V1.54512H7.18364V1.55122H7.17817V1.56341H7.16724V1.56951H7.16177V1.58171H7.15631V1.5878H7.15084V1.5939H7.14537V1.61341H7.1399V1.61951H7.13444V1.62561H7.12897V1.63171H7.1235V1.6378H7.11257V1.65H7.1071V1.6561H7.10163V1.66219H7.09617V1.67439H7.0907V1.68049H7.07977V1.68659H7.0743V1.69268H7.06883V1.70488H7.06336V1.71707H7.0579V1.72317H7.05243V1.72927H7.0415V1.73537H7.03603V1.74146H7.03056V1.75366H7.0251V1.75976H7.01963V1.77195H7.01416V1.77805H7.00869V1.78415H7.00323V1.79024H6.99776V1.79634H6.98683V1.80244C6.98136 1.80244 6.98136 1.80854 6.98136 1.80854L6.97589 1.81463L6.97042 1.82073V1.83293H6.96496V1.83902H6.95949V1.84512H6.95402V1.85122H6.94856L6.93762 1.86341V1.86951C6.92669 1.87561 6.92669 1.88171 6.91466 1.89512C6.91466 1.89512 6.90373 1.90732 6.89717 1.90732C6.87967 1.91951 6.8578 1.94512 6.84031 1.96463C6.82937 1.97073 6.81735 1.98415 6.80641 1.99024C6.78345 2.01585 6.76049 2.03415 6.73753 2.05366C6.70363 2.09146 6.66864 2.11707 6.62928 2.15488H6.62381C6.54399 2.23171 6.45324 2.31951 6.35592 2.41585H6.35046C6.10553 2.65732 5.81468 2.96829 5.48447 3.33659L5.45604 3.36829C3.47368 5.65488 0.347598 10.4244 0.0228534 18.1293C-0.0110425 18.7646 -0.00557633 19.3866 0.0283196 19.9902V20.0024C0.187958 23.039 1.04192 25.6305 2.11237 27.739C2.53334 28.578 2.99476 29.3402 3.46165 30.0256C5.06788 32.389 6.708 33.7927 7.1235 34.1354C7.76753 35.7927 7.70957 38.6512 7.70957 38.6512L8.64882 39C8.64882 39 8.45529 36.2366 8.72317 34.8963C8.80846 34.4829 9.00199 34.128 9.23052 33.8232C9.39016 33.7024 9.84611 33.3341 10.3928 32.7756C10.4212 32.7439 10.4387 32.7183 10.4617 32.6866C12.677 30.3805 16.8177 24.7024 15.3996 15.4549L15.3711 15.478Z" fill="#132834"/>
</svg>
