<svg width="49" height="33" viewBox="0 0 49 33" fill="none" xmlns="http://www.w3.org/2000/svg">
<path d="M33.4956 3.34487C33.2567 3.34487 33.0975 3.37675 32.9367 3.41623V3.44053H32.9612C33.073 3.6455 33.2567 3.80493 33.3991 3.99473C33.5109 4.20882 33.6059 4.42898 33.71 4.64307L33.7421 4.61118C33.9336 4.47605 34.03 4.26348 34.03 3.93855C33.9504 3.84289 33.9336 3.74116 33.8631 3.6531C33.7835 3.51796 33.6074 3.44812 33.4956 3.34487ZM11.7787 30.0574H9.88912C9.82481 26.8947 9.63339 23.9202 9.33939 21.1294H9.32407L6.44523 30.0574H5.00122L2.14535 21.1294H2.12085C1.91412 23.8018 1.77784 26.7838 1.72271 30.0574H0C0.111785 26.0717 0.390481 22.3396 0.83762 18.8595H3.18204L5.90928 27.0845H5.92459L8.67633 18.8595H10.909C11.4036 22.9409 11.6991 26.673 11.7864 30.0574H11.7787ZM19.9773 21.7945C19.2117 25.9381 18.1903 28.952 16.9392 30.8257C15.95 32.2727 14.8735 33 13.7005 33C13.3897 33 13.0068 32.9043 12.5444 32.7145V31.7185C12.7756 31.7504 13.039 31.7732 13.3345 31.7732C13.8843 31.7732 14.3238 31.6153 14.6591 31.3222C15.0573 30.9578 15.2579 30.5478 15.2579 30.0969C15.2579 29.7811 15.1063 29.1479 14.7877 28.1838L12.722 21.7945H14.581L16.0648 26.5713C16.4002 27.663 16.5441 28.4145 16.4798 28.8488C17.3006 26.6973 17.8672 24.3408 18.1872 21.7945H19.9773ZM45.1473 30.0574H39.7724V18.8595H41.5824V28.6818H45.1473V30.0574ZM38.3682 30.3277L36.2948 29.3149C36.4786 29.1646 36.6531 28.9991 36.8139 28.8093C37.699 27.789 38.1385 26.263 38.1385 24.2542C38.1385 20.5449 36.6715 18.6955 33.736 18.6955C32.2997 18.6955 31.1757 19.1616 30.3702 20.103C29.4928 21.131 29.0457 22.6493 29.0457 24.6505C29.0457 26.6198 29.4361 28.0592 30.2186 28.9839C30.9368 29.8069 32.0133 30.226 33.4573 30.226C33.9917 30.226 34.4864 30.1622 34.9335 30.0286L37.6378 31.594L38.3789 30.3292L38.3682 30.3277ZM31.6458 27.8118C31.1833 27.0845 30.9598 25.9138 30.9598 24.2998C30.9598 21.4771 31.8219 20.0696 33.5523 20.0696C34.4542 20.0696 35.1234 20.4097 35.546 21.0824C36.0008 21.8173 36.232 22.9727 36.232 24.5701C36.232 27.4094 35.3623 28.8412 33.6395 28.8412C32.73 28.8412 32.0684 28.5011 31.6381 27.8285L31.6458 27.8118ZM28.2632 26.9584C28.2632 27.9074 27.9125 28.6909 27.202 29.2906C26.5006 29.8995 25.5665 30.2077 24.3783 30.2077C23.2696 30.2077 22.2084 29.86 21.1641 29.1631L21.651 28.1989C22.5438 28.6423 23.3492 28.864 24.0843 28.864C24.7626 28.864 25.297 28.7137 25.6799 28.4206C26.0627 28.12 26.2939 27.7009 26.2939 27.171C26.2939 26.506 25.8238 25.9366 24.9693 25.4629C24.1792 25.0286 22.5928 24.1343 22.5928 24.1343C21.7306 23.5102 21.308 22.8452 21.308 21.7459C21.308 20.8364 21.6265 20.1091 22.2651 19.5549C22.9113 18.9855 23.7321 18.7092 24.7534 18.7092C25.7978 18.7092 26.7548 18.9855 27.617 19.5397L27.179 20.5039C26.4455 20.1957 25.7197 20.0377 25.0092 20.0377C24.4273 20.0377 23.9801 20.1805 23.6693 20.4568C23.3584 20.7332 23.167 21.0809 23.167 21.5166C23.167 22.1817 23.6463 22.7511 24.5222 23.24C25.3277 23.6742 26.9462 24.5928 26.9462 24.5928C27.8313 25.2093 28.2708 25.8743 28.2708 26.9569L28.2632 26.9584ZM47.4136 15.1046C46.3202 15.0803 45.475 15.1911 44.766 15.4918C44.5669 15.5707 44.2392 15.5707 44.207 15.8243C44.3188 15.9351 44.3341 16.1097 44.4306 16.2585C44.5975 16.5273 44.8777 16.8917 45.1411 17.0815C45.429 17.3032 45.7154 17.5249 46.0109 17.7146C46.5453 18.0396 47.1441 18.2294 47.6693 18.5528C47.9648 18.7426 48.268 18.987 48.562 19.1859C48.7136 19.2892 48.8086 19.4714 49 19.5336V19.4942C48.9035 19.3757 48.8806 19.2011 48.7841 19.0599C48.6478 18.9248 48.513 18.8064 48.3768 18.6727C47.9786 18.1428 47.4917 17.6843 46.9572 17.3047C46.5193 17.0116 45.5622 16.6002 45.3861 16.1021L45.3616 16.0703C45.6572 16.046 46.0078 15.9351 46.2942 15.8562C46.7566 15.7377 47.1869 15.7605 47.6662 15.6421C47.8822 15.5874 48.0965 15.5237 48.3201 15.4523V15.3339C48.0736 15.0894 47.8898 14.7569 47.6341 14.5276C46.9404 13.9339 46.1748 13.3494 45.3846 12.8665C44.9543 12.5902 44.4122 12.4156 43.9574 12.1863C43.7982 12.1073 43.5195 12.0679 43.4307 11.9327C43.1841 11.6321 43.0402 11.2449 42.8641 10.8881C42.4736 10.1441 42.0908 9.32266 41.7478 8.53159C41.5012 8.00169 41.3573 7.47937 41.0541 6.98894C39.6499 4.6871 38.1186 3.29628 35.7742 1.92824C35.2719 1.64279 34.6655 1.52435 34.027 1.37403C33.684 1.35885 33.3486 1.33456 33.0056 1.31937C32.782 1.22372 32.5676 0.971669 32.3762 0.844127C31.5953 0.353696 29.5847 -0.698529 29.0181 0.693809C28.6506 1.57901 29.5602 2.44144 29.8802 2.8848C30.1114 3.20062 30.407 3.54985 30.5739 3.89755C30.6704 4.13442 30.6933 4.38039 30.7898 4.62485C31.0057 5.21853 31.2124 5.88205 31.5003 6.43625C31.6519 6.72171 31.8112 7.02082 32.0026 7.27439C32.1144 7.42471 32.3058 7.48848 32.3456 7.73294C32.1542 8.00928 32.1389 8.41316 32.0348 8.74568C31.5401 10.2792 31.7316 12.1696 32.4252 13.3008C32.6488 13.6409 33.1664 14.3849 33.8616 14.0994C34.4756 13.855 34.3409 13.0867 34.5155 12.4065C34.5553 12.241 34.5308 12.1377 34.6119 12.0269V12.0587C34.811 12.4383 35.0024 12.8027 35.1785 13.1823C35.5935 13.8474 36.3346 14.5352 36.9487 14.9937C37.2764 15.2382 37.5306 15.6588 37.9379 15.8076V15.7681H37.9057C37.8185 15.6497 37.7067 15.5935 37.5949 15.4994C37.3484 15.2549 37.0758 14.9543 36.8767 14.6855C36.3101 13.9263 35.8002 13.0882 35.3531 12.2258C35.1295 11.7991 34.9381 11.3406 34.7635 10.9215C34.6839 10.7636 34.6839 10.5176 34.5476 10.4387C34.3409 10.7317 34.0377 10.9837 33.8937 11.3557C33.6304 11.9327 33.6059 12.6524 33.5033 13.3964C33.4558 13.4116 33.4788 13.3964 33.4558 13.4283C33.0178 13.3175 32.8662 12.8741 32.7055 12.4945C32.2905 11.5304 32.2262 9.9877 32.5784 8.88082C32.6748 8.59536 33.0806 7.70257 32.9214 7.43382C32.8341 7.17266 32.563 7.02234 32.4191 6.81736C32.2354 6.5638 32.0516 6.24039 31.9245 5.95493C31.5968 5.19575 31.4375 4.35762 31.0792 3.59844C30.92 3.25073 30.6321 2.88632 30.4009 2.56291C30.1375 2.19851 29.8511 1.93887 29.6505 1.51069C29.5786 1.36037 29.4836 1.11591 29.5954 0.956485C29.6199 0.845645 29.675 0.806167 29.7868 0.774282C29.9629 0.623964 30.4728 0.81376 30.6489 0.900306C31.1512 1.09769 31.5738 1.28749 31.9965 1.57294C32.1879 1.70807 32.3946 1.96012 32.6427 2.03149H32.9306C33.3685 2.12714 33.8555 2.05578 34.2628 2.1818C34.9886 2.41108 35.6425 2.7436 36.232 3.10649C38.0191 4.23767 39.486 5.83498 40.4829 7.74053C40.6498 8.04876 40.7218 8.33421 40.8734 8.65762C41.1521 9.33025 41.512 10.0014 41.7983 10.6421C42.0847 11.2829 42.3572 11.9312 42.7707 12.4611C42.9774 12.7466 43.7921 12.8954 44.1657 13.0381C44.4367 13.1641 44.8594 13.275 45.0983 13.4177C45.5684 13.7031 46.0308 14.0265 46.4703 14.3424C46.6939 14.4927 47.3722 14.8328 47.412 15.1015L47.4136 15.1046Z" fill="#132834"/>
</svg>
