<svg width="58" height="33" viewBox="0 0 58 33" fill="none" xmlns="http://www.w3.org/2000/svg">
<path d="M16.9451 11.8123H14.6595L13.4143 18.735H15.4443C16.7837 18.735 17.7842 18.4606 18.4458 17.9096C19.0965 17.3685 19.5406 16.449 19.7671 15.1727C19.9919 13.9474 19.8886 13.0788 19.4753 12.5691C19.0494 12.0692 18.2084 11.8123 16.9451 11.8123ZM29 0C12.9793 0 0 7.39324 0 16.5C0 25.6068 12.9793 33 29 33C45.0207 33 58 25.6068 58 16.5C58 7.39324 45.0207 0 29 0ZM21.1174 19.482C20.4939 20.1349 19.7309 20.625 18.908 20.9191C18.096 21.1955 17.0592 21.3484 15.8032 21.3484H12.9412L12.1582 25.7401H8.82506L11.7994 9.20871H18.1993C20.126 9.20871 21.5325 9.74982 22.4188 10.8418C23.2979 11.9339 23.5716 13.467 23.2109 15.4276C23.0804 16.204 22.8248 16.949 22.4768 17.645C22.127 18.3057 21.6866 18.9213 21.1174 19.482ZM30.8506 21.3484L32.1628 14.0297C32.3133 13.2004 32.2571 12.6318 31.9906 12.3221C31.7369 12.026 31.1786 11.8731 30.3304 11.8731H27.6968L25.9985 21.3484H22.6852L25.6577 4.80727H28.9619L28.1699 9.20871H31.1152C32.9766 9.20871 34.249 9.55573 34.9486 10.2498C35.6573 10.9556 35.8639 12.0868 35.5921 13.6513L34.2019 21.3504L30.8506 21.3484ZM49.2003 15.4276C49.0698 16.204 48.8233 16.949 48.4662 17.645C48.1255 18.3057 47.6742 18.9213 47.1159 19.482C46.4834 20.1251 45.7294 20.625 44.8974 20.9191C44.0854 21.1955 43.0469 21.3484 41.7926 21.3484H38.9416L38.1495 25.7401H34.8163L37.7906 9.20871H44.1906C46.1172 9.20871 47.5238 9.74982 48.4101 10.8536C49.2891 11.9358 49.561 13.467 49.2003 15.4276ZM42.9345 11.8123H40.658L39.4128 18.735H41.4338C42.7822 18.735 43.7827 18.4606 44.4352 17.9096C45.095 17.3685 45.5391 16.449 45.7674 15.1727C45.9922 13.9474 45.8889 13.0788 45.4629 12.5691C45.0497 12.0692 44.1996 11.8123 42.9345 11.8123Z" fill="#132834"/>
</svg>
