<svg width="37" height="41" viewBox="0 0 37 41" fill="none" xmlns="http://www.w3.org/2000/svg">
<path d="M27.7027 29.6683C27.9471 27.4995 27.874 27.1813 29.3894 27.5324L29.7741 27.5687C30.9396 27.6252 32.4643 27.3688 33.3594 26.9253C35.2874 25.972 36.4304 24.3793 34.5295 24.7977C30.1929 25.751 29.8948 24.1864 29.8948 24.1864C34.4742 16.9442 36.3887 7.75117 34.7364 5.50072C30.23 -0.637319 22.4291 2.26518 22.2984 2.34061L22.2567 2.34926C21.3998 2.15925 20.4412 2.04632 19.3639 2.02777C17.4015 1.99356 15.9124 2.57637 14.7829 3.48933C14.7829 3.48933 0.866663 -2.62192 1.51397 11.1747C1.65162 14.1097 5.46081 33.3832 10.0039 27.5617C11.6643 25.4333 13.2691 23.6333 13.2691 23.6333C14.066 24.1976 15.0199 24.4853 16.0207 24.3818L16.098 24.3117C16.074 24.5759 16.0845 24.8344 16.1293 25.1402C14.9588 26.5346 15.303 26.7794 12.9628 27.2926C10.5955 27.8127 11.9864 28.7385 12.894 28.9804C13.9952 29.2743 16.5415 29.6902 18.2626 27.1219L18.1942 27.415C18.6536 27.8065 18.6223 30.2289 18.6872 31.9596C18.7522 33.6903 18.8612 35.3051 19.1922 36.2581C19.5232 37.2102 19.9138 39.663 22.989 38.9607C25.5589 38.3729 27.5236 37.528 27.7027 29.6683Z" fill="#132834"/>
<path d="M21.9864 40.6712C20.6261 40.6712 19.7406 40.1107 19.2023 39.5691C18.3903 38.7526 18.0682 37.7003 17.876 37.0718L17.7929 36.8092C17.4054 35.6943 17.2743 34.0893 17.1966 32.0227C17.185 31.7127 17.1765 31.3925 17.1676 31.0532C17.1611 30.8055 17.1529 30.4948 17.1413 30.1687C16.658 30.4156 16.1406 30.59 15.5958 30.6897C14.6368 30.8645 13.6059 30.8076 12.5309 30.5211C11.7727 30.3192 10.9846 29.9004 10.5357 29.2533C9.22676 30.4754 7.97816 30.3093 7.29799 30.0677C6.09812 29.6412 5.02431 28.443 4.01469 26.4036C3.29585 24.9515 2.60021 23.0588 1.94711 20.7791C0.810268 16.8087 0.0879485 12.6268 0.0237595 11.2542C-0.178088 6.95655 0.906938 3.88341 3.24867 2.12056C6.94341 -0.661175 12.5406 0.974316 14.5811 1.71705C15.9519 0.836239 17.5647 0.40717 19.3876 0.438494C20.3666 0.455393 21.2985 0.547307 22.1643 0.711351C23.0672 0.408818 24.8514 -0.0256089 26.8934 0.00118212C30.6558 0.0489938 33.7736 1.61194 35.9093 4.52104C37.4332 6.59673 36.6799 10.955 36.0949 13.3687C35.2724 16.7629 33.8305 20.3739 32.0595 23.5171C32.5405 23.5208 33.2369 23.459 34.2276 23.2414C36.1819 22.8111 36.753 23.9281 36.9081 24.428C37.5294 26.4341 34.8285 27.9496 33.9859 28.3663C32.9063 28.9009 31.1465 29.2261 29.705 29.1556L29.6419 29.1511L29.2634 29.1156L29.2259 29.452L29.1899 29.7813C29.0932 33.7645 28.5592 36.287 27.4607 37.9542C26.3095 39.7014 24.7091 40.1915 23.2996 40.5134C22.8197 40.6234 22.3828 40.6712 21.9864 40.6712ZM19.1242 26.1736C20.0024 26.9225 20.0793 28.3317 20.1478 30.9655C20.1563 31.294 20.1644 31.6051 20.1752 31.8957C20.2085 32.7753 20.2862 34.8353 20.5886 35.7058C20.6315 35.8286 20.6698 35.9539 20.71 36.0858C21.0472 37.1872 21.2166 37.7391 22.6747 37.406C23.8993 37.1266 24.5285 36.8756 25.0211 36.1279C25.7372 35.0406 26.1378 32.8548 26.2113 29.6292L27.7008 29.6679L26.2214 29.4788L26.2647 29.0851C26.4066 27.7876 26.5087 26.8495 27.3226 26.2296C27.9753 25.7321 28.7197 25.7804 29.3125 25.8941C28.6613 25.3702 28.4811 24.7545 28.4332 24.5022L28.309 23.8502L28.6578 23.2979C30.6686 20.1176 32.327 16.2089 33.2079 12.574C34.1127 8.83893 33.8366 6.85516 33.5609 6.48008C29.9084 1.50478 23.5734 3.55862 22.9121 3.79232L22.8 3.85662L22.2393 3.96832L21.952 3.90484C21.1605 3.72967 20.2812 3.63281 19.3381 3.61633C17.8567 3.58995 16.6618 3.96296 15.682 4.75556L15.0022 5.30499L14.213 4.95835C12.5278 4.22386 7.57679 2.74706 4.96438 4.71929C3.51432 5.81402 2.85387 7.95936 3.00081 11.0956C3.04915 12.1309 3.7096 16.0503 4.79772 19.8521C6.30229 25.1056 7.66959 26.8504 8.24033 27.0536C8.33971 27.0894 8.5984 26.8751 8.85554 26.5462C10.5283 24.4016 12.1191 22.6141 12.186 22.5386L13.0487 21.5713L14.0916 22.3099C14.5119 22.6079 14.9755 22.7765 15.4519 22.8082L17.9394 20.547L17.5791 24.4668C17.5709 24.555 17.5671 24.6745 17.5995 24.8971L17.7078 25.6402L17.2388 26.1999L17.1846 26.2647L18.5512 26.9373L19.1242 26.1736Z" fill="#132834"/>
<path d="M34.5311 24.7979C30.1941 25.7512 29.8959 24.1862 29.8959 24.1862C34.475 16.944 36.3891 7.75054 34.7372 5.5005C30.2304 -0.637532 22.4295 2.26538 22.2992 2.34081L22.2571 2.34864C21.4002 2.15945 20.4416 2.04652 19.3639 2.02797C17.4015 1.99376 15.9128 2.57616 14.7833 3.48911C14.7833 3.48911 0.866663 -2.62172 1.51397 11.1748C1.65162 14.1099 5.46081 33.3834 10.0039 27.5619C11.6643 25.4335 13.2687 23.6335 13.2687 23.6335C14.0656 24.1978 15.0196 24.4855 16.0199 24.382L16.0976 24.3119C16.0736 24.5761 16.0845 24.8346 16.1286 25.1404C14.9585 26.5348 15.3018 26.7796 12.9624 27.2928C10.5948 27.8129 11.9857 28.7387 12.894 28.9806C13.9949 29.2745 16.5415 29.6904 18.2623 27.1221L18.1934 27.4152C18.652 27.8067 18.9741 29.962 18.92 31.9157C18.8659 33.8693 18.8299 35.2105 19.1915 36.2583C19.553 37.3056 19.913 39.6632 22.9887 38.9609C25.5585 38.3735 26.8903 36.8522 27.0759 34.3149C27.2073 32.5108 27.5047 32.7775 27.5236 31.1643L27.7626 30.4005C28.0375 27.9547 27.8063 27.1658 29.3898 27.5331L29.7745 27.5689C30.94 27.6258 32.465 27.369 33.3602 26.9255C35.2882 25.9718 36.4316 24.3795 34.5311 24.7979Z" fill="#132834"/>
<path fill-rule="evenodd" clip-rule="evenodd" d="M14.7118 12.8937C14.6871 13.0808 15.0339 13.5808 15.4856 13.6476C15.9368 13.7147 16.3231 13.324 16.3475 13.1369C16.3719 12.9493 16.0254 12.7433 15.5734 12.6761C15.1221 12.6089 14.7358 12.7062 14.7118 12.8937ZM15.5084 13.4732C15.1588 13.4217 14.8909 13.0404 14.8766 12.925C14.9079 12.8921 15.0428 12.8315 15.295 12.8319C15.3773 12.8319 15.4635 12.8385 15.5506 12.8517C15.9442 12.9094 16.1515 13.0598 16.1812 13.12C16.153 13.2086 15.9117 13.4794 15.5892 13.4794L15.5084 13.4732Z" fill="white"/>
<path fill-rule="evenodd" clip-rule="evenodd" d="M18.4357 36.6443C18.7685 37.53 19.5811 39.6922 22.1438 39.6918C22.5201 39.6918 22.9342 39.6452 23.3893 39.5417C26.0706 38.9288 27.2349 37.6659 27.6854 34.8817C27.9306 33.3678 28.3524 29.7381 28.5458 27.8329C28.9611 27.9809 29.5083 28.0475 30.1017 28.0475C31.2954 28.0475 32.6747 27.7768 33.5401 27.3485C34.5045 26.8708 36.2465 25.7035 35.936 24.7024C35.7782 24.1938 35.262 24.0318 34.4008 24.221C31.6917 24.817 30.7586 24.3757 30.4653 24.125C32.513 20.8084 34.1971 16.791 35.1046 13.0458C36.0218 9.26084 36.0199 6.37029 35.0988 5.11564C33.1522 2.46457 30.2947 1.04217 26.835 1.00342C24.5208 0.974983 22.6527 1.57263 22.1419 1.77171L22.1349 1.77418L22.1415 1.77212L22.0505 1.81193C21.2246 1.59131 20.3228 1.45671 19.3412 1.4395C17.5485 1.4084 16.0003 1.8657 14.7212 2.80188C13.4592 2.29597 7.48326 0.133096 3.79662 2.91754C1.74915 4.464 0.803716 7.23172 0.987389 11.1432C1.04926 12.4626 1.75495 16.5224 2.86859 20.4125C4.33179 25.5226 5.91795 28.4136 7.58339 29.0058C7.77557 29.0743 7.99752 29.1221 8.24229 29.1217C8.84474 29.1217 9.58446 28.8315 10.3559 27.8431C11.6736 26.1534 12.9036 24.7405 13.3331 24.2538C14.0056 24.6444 14.7478 24.8581 15.5061 24.8734C15.5078 24.9132 15.5104 24.9528 15.5138 24.9923C15.3608 25.1853 15.2365 25.3535 15.1303 25.4972L15.1298 25.4979C14.6086 26.2031 14.4999 26.3498 12.8326 26.7158C12.3705 26.8172 11.1443 27.0868 11.1269 27.9857C11.1111 28.7866 12.1358 29.2742 12.7433 29.4361C13.3298 29.5932 13.9041 29.6719 14.4497 29.6719C15.8036 29.6719 16.9843 29.1854 17.917 28.2528C17.8883 31.8525 18.0283 35.5573 18.4352 36.6429L18.4357 36.6443ZM18.9239 26.0429C18.9397 26.0971 18.9475 26.1548 18.946 26.2146C18.8211 30.9756 18.9986 35.2898 19.3582 36.2493C19.92 37.7463 20.7719 39.0558 23.1813 38.506C25.4685 37.9829 26.325 37.0584 26.7063 34.7016C26.9965 32.9107 27.5663 27.8491 27.6467 26.7627C27.5425 24.5686 28.6859 24.1841 29.2708 24.0083C29.1899 23.8781 29.0751 23.7251 28.9565 23.5671L28.9517 23.5607C28.6088 23.104 28.1393 22.4783 27.7774 21.5427C27.7209 21.3968 27.5431 21.0567 27.3373 20.6635C26.2225 18.533 23.9032 14.0993 25.3931 11.8287C26.083 10.778 27.4557 10.3646 29.4788 10.5954C28.8837 8.66278 26.0493 2.61666 19.3249 2.49919C17.3022 2.46292 15.6434 3.1261 14.3971 4.4673C12.3905 6.62754 11.8791 10.0449 11.7505 11.8146C11.8597 11.7482 11.9803 11.679 12.1137 11.6069C12.6095 11.339 13.6036 10.8716 14.6894 10.7517C16.489 10.5538 17.675 11.4078 18.0299 13.1571C18.9881 17.8806 18.1057 19.9698 17.4615 21.4953C17.3413 21.7789 17.228 22.0476 17.1375 22.3073L17.0574 22.5368L17.0566 22.5394C16.8558 23.1133 16.6712 23.6411 16.5723 24.1064C16.703 24.063 16.8364 24.0413 16.972 24.0413C17.279 24.0413 17.5313 24.1523 17.698 24.2257L17.6993 24.2263C18.2314 24.4613 18.6753 25.0292 18.8578 25.7093C18.888 25.8215 18.91 25.9329 18.9239 26.0429ZM10.7159 13.0003C10.7157 12.9965 10.7156 12.9927 10.7155 12.9889C10.7093 12.7478 10.6049 7.04378 13.691 3.72168C13.7326 3.67693 13.7745 3.63283 13.8169 3.58938C11.9824 2.9451 7.244 1.61043 4.3693 3.78351C2.61841 5.10699 1.8145 7.56517 1.97961 11.0909C2.03181 12.2021 2.6911 16.1651 3.81905 20.1038C5.12526 24.6653 6.61205 27.5443 7.89776 28.001C8.09922 28.0731 8.71327 28.2911 9.5918 27.1659C10.8293 25.5788 11.9916 24.2318 12.5031 23.6488C12.3607 23.5211 12.2234 23.3841 12.0921 23.2379C10.9201 21.9342 10.3864 20.1281 10.6285 18.2828C10.8914 16.2789 10.7932 14.5098 10.7402 13.5594C10.7266 13.3134 10.7166 13.1311 10.7159 13.0003ZM23.7103 2.40706C25.6283 3.28115 27.0263 4.607 27.9788 5.78913C29.6849 7.90603 30.5217 10.2414 30.5905 11.0204C30.6008 11.1371 30.5933 11.235 30.574 11.3172C30.6019 12.1347 30.502 12.827 30.405 13.4981L30.4049 13.4992L30.4048 13.4996C30.326 14.0448 30.2444 14.6085 30.2247 15.2674C30.2058 15.8889 30.2803 16.549 30.3591 17.2474L30.3593 17.2491C30.5513 18.95 30.7674 20.8693 29.6569 22.8033C29.6809 22.8354 29.7046 22.8669 29.7278 22.8979L29.73 22.9008C29.7858 22.9753 29.8402 23.0478 29.8922 23.1192C34.1843 15.947 35.6625 7.60295 34.3158 5.76893C32.5641 3.38329 30.0905 2.13689 26.9642 2.06558C25.6687 2.0356 24.5218 2.21975 23.7103 2.40706ZM29.0213 21.839C29.7074 20.3485 29.5374 18.8403 29.3725 17.3765L29.3724 17.3761C29.2924 16.6679 29.21 15.9363 29.2317 15.2336C29.2534 14.5111 29.3392 13.9151 29.4227 13.338C29.5023 12.7869 29.5783 12.2598 29.5844 11.6744C27.8323 11.4347 26.6974 11.6903 26.2079 12.4362C25.0748 14.162 27.2675 18.3543 28.2048 20.1463L28.2054 20.1475C28.4448 20.6042 28.6173 20.9343 28.6961 21.1383C28.7966 21.3978 28.9069 21.6296 29.0213 21.839ZM30.4231 26.9809C29.2936 27.0324 28.7483 26.8304 28.6397 26.7129C28.5716 25.3177 29.0805 25.1657 29.5727 25.0185L29.5745 25.018C29.6363 24.9995 29.7225 24.9736 29.8156 24.9344C29.8662 24.9789 29.9215 25.0243 29.9838 25.0676C30.8511 25.6784 32.4048 25.7427 34.6015 25.2592L34.7577 25.2287C34.4766 25.5358 33.9345 25.9855 33.1217 26.3877C32.486 26.7018 31.4269 26.9347 30.4231 26.9809ZM12.9842 28.409C12.6504 28.3196 12.3504 28.1547 12.2004 28.0315C12.3202 27.9618 12.5619 27.8571 13.0329 27.7533C14.964 27.3291 15.2613 27.0311 15.9102 26.1528L15.9183 26.1419C16.0675 25.9405 16.2361 25.7129 16.4693 25.4352C16.7504 25.1001 16.9171 25.1001 16.972 25.1001C17.0741 25.1001 17.1851 25.1455 17.3192 25.2048C17.5663 25.3144 17.8061 25.6413 17.9027 26.0007C17.9487 26.1726 18.0002 26.4986 17.8281 26.7558C17.0022 27.9878 15.8657 28.613 14.4497 28.613C13.9849 28.613 13.4923 28.5442 12.9842 28.409ZM11.7325 13.4967L11.7127 13.1183C12.1636 12.6612 14.3116 11.5055 15.7532 11.8451C16.455 12.0108 16.8819 12.5133 17.0582 13.3809C17.9472 17.7635 17.1754 19.5919 16.5551 21.0609C16.4283 21.3613 16.3084 21.6453 16.206 21.9388L16.1263 22.1667L16.1249 22.1707C15.9201 22.7565 15.7301 23.3001 15.6151 23.8154H15.5939C14.5672 23.8154 13.568 23.3496 12.8094 22.5055C11.8492 21.4376 11.4131 19.9517 11.6126 18.43C11.8895 16.3213 11.7874 14.4839 11.7325 13.4967ZM15.4856 13.6476C15.0339 13.5808 14.6871 13.0808 14.7118 12.8937C14.7358 12.7062 15.1221 12.6089 15.5734 12.6761C16.0254 12.7433 16.3719 12.9493 16.3475 13.1369C16.3231 13.324 15.9368 13.7147 15.4856 13.6476ZM15.4628 13.8227L15.5896 13.8322C16.0737 13.8322 16.4767 13.4312 16.5118 13.162C16.5246 13.0643 16.5037 12.8764 16.2203 12.7074C16.0567 12.6101 15.8351 12.5368 15.597 12.5013C15.4945 12.4865 15.3932 12.4786 15.2953 12.4786C14.8588 12.4786 14.5796 12.6246 14.5479 12.869C14.5258 13.0355 14.6372 13.2226 14.7053 13.3187C14.899 13.5927 15.1824 13.7811 15.4628 13.8227ZM26.7388 12.7672C26.7697 13.0009 27.1444 13.3615 27.5794 13.3615L27.6954 13.3533C27.9901 13.31 28.2066 13.1101 28.3095 12.9947C28.4657 12.8199 28.5562 12.6258 28.5395 12.4997C28.514 12.3055 28.2588 12.1848 27.8733 12.1848C27.7793 12.1848 27.6819 12.1922 27.5837 12.207C27.1367 12.273 26.7032 12.4865 26.7388 12.7672Z" fill="white"/>
<path d="M14.8766 12.925C14.8909 13.0404 15.1588 13.4217 15.5084 13.4732L15.5892 13.4794C15.9117 13.4794 16.153 13.2086 16.1812 13.12C16.1515 13.0598 15.9442 12.9094 15.5506 12.8517C15.4635 12.8385 15.3773 12.8319 15.295 12.8319C15.0428 12.8315 14.9079 12.8921 14.8766 12.925Z" fill="white"/>
</svg>
