<svg width="45" height="41" viewBox="0 0 45 41" fill="none" xmlns="http://www.w3.org/2000/svg">
<path d="M22.5 16.3911C20.288 16.3911 18.4866 18.2358 18.4866 20.501C18.4866 22.7662 20.288 24.6109 22.5 24.6109C24.712 24.6109 26.5134 22.7662 26.5134 20.501C26.5134 18.2358 24.712 16.3911 22.5 16.3911ZM11.2641 28.6689L10.3781 28.4443C3.78562 26.7335 0 23.839 0 20.4938C0 17.1486 3.78703 14.2541 10.3781 12.5433L11.2641 12.3187L11.513 13.2187C12.1795 15.5732 13.0359 17.8686 14.0695 20.0891L14.2594 20.4938L14.0695 20.9056C13.0373 23.1175 12.1795 25.413 11.513 27.7761L11.2641 28.6689ZM9.96891 14.6429C4.95844 16.0829 1.88297 18.2948 1.88297 20.4938C1.88297 22.6927 4.95984 24.896 9.96891 26.3447C10.5848 24.3416 11.3245 22.3918 12.188 20.4938C11.3231 18.5958 10.5834 16.646 9.96891 14.6429ZM33.7359 28.6689L33.487 27.7689C32.8205 25.4144 31.9641 23.119 30.9305 20.9056L30.7406 20.4938L30.9305 20.0819C31.9627 17.87 32.8205 15.5746 33.487 13.2115L33.7359 12.3187L34.6219 12.5433C41.2144 14.2541 45 17.1486 45 20.4938C45 23.839 41.213 26.7335 34.6219 28.4443L33.7359 28.6689ZM32.812 20.4938C33.7134 22.4882 34.4602 24.4467 35.0311 26.3447C40.0486 24.8974 43.117 22.6927 43.117 20.4938C43.117 18.2948 40.0402 16.0916 35.0311 14.6429C34.4152 16.6373 33.6755 18.5958 32.812 20.4938ZM9.95344 14.6357L9.70453 13.7357C7.85109 7.04521 8.415 2.24555 11.25 0.572219C14.033 -1.07087 18.4936 0.871748 23.1736 5.79238L23.8106 6.46056L23.1736 7.12874C21.5114 8.89855 19.9955 10.8037 18.6328 12.8284L18.3769 13.1956L17.9367 13.2331C15.5419 13.4275 13.1681 13.8177 10.8394 14.4038L9.95344 14.6357ZM13.5127 1.90858C13.0078 1.90858 12.5606 2.0137 12.1866 2.23835C10.3261 3.34142 9.99703 7.16618 11.2781 12.3259C13.2778 11.8679 15.2986 11.5454 17.3433 11.3581C18.5147 9.64737 19.8042 8.01292 21.188 6.47496C18.2658 3.55743 15.4969 1.90858 13.5127 1.90858ZM31.4944 40.9986C31.4873 40.9986 31.4873 40.9986 31.4944 40.9986C28.8211 40.9986 25.3856 38.9436 21.8264 35.1937L21.1894 34.5256L21.8264 33.8574C23.4886 32.0876 25.0045 30.1824 26.3672 28.1577L26.6161 27.7905L27.0562 27.7458C29.4511 27.5586 31.8248 27.1684 34.1606 26.5751L35.0466 26.3504L35.2955 27.2505C37.1489 33.9409 36.585 38.7334 33.75 40.4053C33.0609 40.8099 32.2847 41.0144 31.4944 40.9986ZM23.8106 34.5112C26.7328 37.4287 29.5017 39.079 31.4859 39.079H31.493C31.9908 39.079 32.438 38.9667 32.812 38.7492C34.6725 37.6461 35.01 33.8214 33.7205 28.6617C31.7208 29.1196 29.6916 29.4422 27.6553 29.6222C26.4839 31.3402 25.1944 32.966 23.8106 34.5112ZM35.0466 14.6357L34.1606 14.4038C31.8248 13.8192 29.4511 13.4289 27.0562 13.2331L26.6161 13.1956L26.3672 12.8284C25.0045 10.8037 23.4886 8.89855 21.8264 7.12874L21.1894 6.46056L21.8264 5.79238C26.5064 0.871748 30.967 -1.07087 33.75 0.572219C36.585 2.24411 37.1489 7.04521 35.2955 13.7357L35.0466 14.6357ZM27.6567 11.3581C29.7956 11.5612 31.8319 11.8838 33.7219 12.3259C35.0114 7.16618 34.6739 3.33998 32.8134 2.23835C30.96 1.14392 27.4739 2.82301 23.812 6.4764C25.1958 8.02156 26.4783 9.64881 27.6567 11.3596V11.3581ZM13.5127 40.9986C12.7209 41.013 11.9377 40.8114 11.25 40.4067C8.415 38.7348 7.85109 33.9409 9.70453 27.2519L9.95344 26.3519L10.8394 26.5765C13.0078 27.1396 15.3956 27.5284 17.9367 27.7473L18.3769 27.7919L18.6258 28.1591C19.9884 30.1838 21.5044 32.089 23.1666 33.8588L23.8036 34.527L23.1666 35.1952C19.6144 38.9451 16.1789 41 13.5127 41V40.9986ZM11.2795 28.6617C9.99 33.8214 10.3275 37.6476 12.188 38.7492C14.0414 39.8292 17.5205 38.1646 21.1894 34.5112C19.8056 32.966 18.5161 31.3387 17.3447 29.6208C15.3014 29.4408 13.2792 29.1196 11.2795 28.6617ZM22.5 29.8685C20.9545 29.8685 19.3725 29.8008 17.7834 29.6654L17.3433 29.628L17.0873 29.2536C16.1944 27.933 15.3436 26.5765 14.5603 25.1811C13.7686 23.7857 13.0444 22.3615 12.3708 20.9056L12.1809 20.4938L12.3708 20.0819C13.0444 18.6275 13.77 17.2018 14.5603 15.8064C15.3366 14.4341 16.1859 13.0617 17.0873 11.734L17.3433 11.3596L17.7834 11.3221C20.925 11.0514 24.082 11.0514 27.2166 11.3221L27.6567 11.3596L27.9127 11.734C29.707 14.3736 31.2891 17.1716 32.6292 20.0819L32.8191 20.4938L32.6292 20.9056C31.2891 23.816 29.7141 26.614 27.9127 29.2536L27.6567 29.628L27.2166 29.6654C25.6345 29.8008 24.0455 29.8685 22.5 29.8685ZM18.3839 27.7833C21.1528 28.0007 23.8472 28.0007 26.6231 27.7833C28.1686 25.4662 29.5453 23.0283 30.7392 20.4923C29.5523 17.9579 28.1756 15.5199 26.6161 13.2014C23.8767 12.984 21.1233 12.984 18.3839 13.2014C16.8244 15.5184 15.4462 17.9564 14.2608 20.4923C15.4547 23.0268 16.8314 25.4648 18.3839 27.7833Z" fill="#132834"/>
</svg>
