<svg width="39" height="41" viewBox="0 0 39 41" fill="none" xmlns="http://www.w3.org/2000/svg">
<path d="M0 20.5V41H39V0H0V20.5ZM31.4267 18.8651C32.4175 19.1252 33.1719 19.5929 33.8703 20.3463C34.2262 20.746 34.7588 21.4802 34.8038 21.6608C34.816 21.7146 33.122 22.9087 32.0933 23.5763C32.0556 23.6032 31.9032 23.4366 31.7375 23.1752C31.2366 22.4078 30.7088 22.0747 29.9032 22.0144C28.7223 21.9337 27.9606 22.582 27.9667 23.6698C27.9606 23.9363 28.0178 24.2041 28.1312 24.4373C28.392 25.0049 28.8807 25.3444 30.3908 26.0324C33.1841 27.2932 34.3773 28.1273 35.1195 29.3086C35.9507 30.6296 36.1347 32.7385 35.5765 34.3132C34.955 36.0147 33.4181 37.1755 31.2597 37.556C30.5931 37.6828 29.0063 37.6623 28.2884 37.5227C26.7211 37.2293 25.2354 36.4144 24.3214 35.3471C23.9594 34.9333 23.2611 33.8455 23.3062 33.7725C23.3257 33.7456 23.4841 33.6392 23.662 33.5316C23.84 33.424 24.4932 33.0242 25.1099 32.6501L26.2336 31.9633L26.4688 32.3298C26.7991 32.8564 27.5157 33.5777 27.9484 33.8173C29.1927 34.5117 30.9002 34.4118 31.7448 33.6174C32.0872 33.3176 32.2786 32.8564 32.253 32.39C32.253 31.9159 32.1957 31.7032 31.9605 31.3483C31.6558 30.8948 31.0403 30.5078 29.2817 29.7071C27.2695 28.7923 26.3993 28.2323 25.6133 27.3316C25.1184 26.7371 24.7504 26.0376 24.5408 25.2829C24.3945 24.7025 24.3567 23.247 24.4713 22.6666C24.8844 20.6179 26.3567 19.197 28.47 18.7767C29.1562 18.6371 30.7552 18.6896 31.4279 18.8638L31.4267 18.8651ZM22.2739 20.5807L22.2861 22.2553H17.2075V37.424H13.6147V22.2553H8.54344V20.614C8.54344 19.6992 8.56294 18.9394 8.58731 18.9189C8.60681 18.892 11.6915 18.8792 15.4367 18.8856L22.2544 18.9061L22.2739 20.5807Z" fill="#132834"/>
</svg>
